<?xml version="1.0" standalone="no"?>
<!DOCTYPE svg PUBLIC "-//W3C//DTD SVG 1.1//EN"
"http://www.w3.org/Graphics/SVG/1.1/DTD/svg11.dtd">

<svg width="292" height="542" view_box="0 0 292 542"
xmlns="http://www.w3.org/2000/svg"
xmlns:link="http://www.w3.org/1999/xlink">\n\n<desc>Généré par Mocodo 2.3.7 le Thu, 21 Oct 2021 07:07:11</desc>

<rect id="frame" x="0" y="0" width="292" height="542" fill="#f7f7f7" stroke="none" stroke-width="0"/>

<!-- Association publishes -->
<line x1="242" y1="491" x2="129" y2="491" stroke="#8073ac" stroke-width="2"/>
<text x="174" y="508.0" fill="#b35806" font-family="Verdana" font-size="12">1,N</text>
<line x1="129" y1="305" x2="129" y2="491" stroke="#8073ac" stroke-width="2"/>
<text x="134.0" y="441" fill="#b35806" font-family="Verdana" font-size="12">1,1</text>
<g id="association-publishes">
	<path d="M 151 466 a 14 14 90 0 1 14 14 V 491 h -72 V 480 a 14 14 90 0 1 14 -14" fill="#b2abd2" stroke="#b2abd2" stroke-width="0"/>
	<path d="M 165 491.0 v 11 a 14 14 90 0 1 -14 14 H 107 a 14 14 90 0 1 -14 -14 V 491.0 H 72" fill="#d8daeb" stroke="#d8daeb" stroke-width="0"/>
	<rect x="93" y="466" width="72" height="50" fill="none" rx="14" stroke="#8073ac" stroke-width="2"/>
	<line x1="93" y1="491" x2="165" y2="491" stroke="#8073ac" stroke-width="1"/>
	<text x="100" y="483.7" fill="#000000" font-family="Verdana" font-size="12">publishes</text>
</g>

<!-- Association has -->
<line x1="41" y1="85" x2="129" y2="85" stroke="#8073ac" stroke-width="2"/>
<text x="78" y="102.0" fill="#b35806" font-family="Verdana" font-size="12">0,N</text>
<line x1="129" y1="305" x2="129" y2="85" stroke="#8073ac" stroke-width="2"/>
<text x="134.0" y="178" fill="#b35806" font-family="Verdana" font-size="12">1,N</text>
<g id="association-has">
	<path d="M 133 60 a 14 14 90 0 1 14 14 V 85 h -36 V 74 a 14 14 90 0 1 14 -14" fill="#b2abd2" stroke="#b2abd2" stroke-width="0"/>
	<path d="M 147 85.0 v 11 a 14 14 90 0 1 -14 14 H 125 a 14 14 90 0 1 -14 -14 V 85.0 H 36" fill="#d8daeb" stroke="#d8daeb" stroke-width="0"/>
	<rect x="111" y="60" width="36" height="50" fill="none" rx="14" stroke="#8073ac" stroke-width="2"/>
	<line x1="111" y1="85" x2="147" y2="85" stroke="#8073ac" stroke-width="1"/>
	<text x="118" y="77.7" fill="#000000" font-family="Verdana" font-size="12">has</text>
</g>

<!-- Association wrote -->
<line x1="242" y1="85" x2="242" y2="305" stroke="#8073ac" stroke-width="2"/>
<text x="247.0" y="178" fill="#b35806" font-family="Verdana" font-size="12">1,N</text>
<line x1="129" y1="305" x2="242" y2="305" stroke="#8073ac" stroke-width="2"/>
<text x="190" y="322.0" fill="#b35806" font-family="Verdana" font-size="12">1,N</text>
<g id="association-wrote">
	<path d="M 253 280 a 14 14 90 0 1 14 14 V 305 h -50 V 294 a 14 14 90 0 1 14 -14" fill="#b2abd2" stroke="#b2abd2" stroke-width="0"/>
	<path d="M 267 305.0 v 11 a 14 14 90 0 1 -14 14 H 231 a 14 14 90 0 1 -14 -14 V 305.0 H 50" fill="#d8daeb" stroke="#d8daeb" stroke-width="0"/>
	<rect x="217" y="280" width="50" height="50" fill="none" rx="14" stroke="#8073ac" stroke-width="2"/>
	<line x1="217" y1="305" x2="267" y2="305" stroke="#8073ac" stroke-width="1"/>
	<text x="224" y="297.7" fill="#000000" font-family="Verdana" font-size="12">wrote</text>
</g>

<!-- Entity GENRE -->
<g id="entity-GENRE">
	<g id="frame-GENRE">
		<rect x="9" y="51" width="64" height="25" fill="#fdb863" stroke="#fdb863" stroke-width="0"/>
		<rect x="9" y="76.0" width="64" height="43" fill="#fee0b6" stroke="#fee0b6" stroke-width="0"/>
		<rect x="9" y="51" width="64" height="68" fill="none" stroke="#e08214" stroke-width="2"/>
		<line x1="9" y1="76" x2="73" y2="76" stroke="#e08214" stroke-width="1"/>
	</g>
	<text x="19" y="68.7" fill="#000000" font-family="Verdana" font-size="12">GENRE</text>
	<text x="14" y="93.8" fill="#000000" font-family="Verdana" font-size="12">refGenre</text>
	<line x1="14" y1="96" x2="68" y2="96" stroke="#000000" stroke-width="1"/>
	<text x="14" y="110.8" fill="#000000" font-family="Verdana" font-size="12">label</text>
</g>

<!-- Entity PUBLISHER -->
<g id="entity-PUBLISHER">
	<g id="frame-PUBLISHER">
		<rect x="201" y="449" width="82" height="25" fill="#fdb863" stroke="#fdb863" stroke-width="0"/>
		<rect x="201" y="474.0" width="82" height="59" fill="#fee0b6" stroke="#fee0b6" stroke-width="0"/>
		<rect x="201" y="449" width="82" height="84" fill="none" stroke="#e08214" stroke-width="2"/>
		<line x1="201" y1="474" x2="283" y2="474" stroke="#e08214" stroke-width="1"/>
	</g>
	<text x="207" y="466.7" fill="#000000" font-family="Verdana" font-size="12">PUBLISHER</text>
	<text x="206" y="491.8" fill="#000000" font-family="Verdana" font-size="12">refPublisher</text>
	<line x1="206" y1="494" x2="278" y2="494" stroke="#000000" stroke-width="1"/>
	<text x="206" y="508.8" fill="#000000" font-family="Verdana" font-size="12">name</text>
	<text x="206" y="525.8" fill="#000000" font-family="Verdana" font-size="12">country</text>
</g>

<!-- Entity BOOK -->
<g id="entity-BOOK">
	<g id="frame-BOOK">
		<rect x="73" y="186" width="112" height="25" fill="#fdb863" stroke="#fdb863" stroke-width="0"/>
		<rect x="73" y="211.0" width="112" height="213" fill="#fee0b6" stroke="#fee0b6" stroke-width="0"/>
		<rect x="73" y="186" width="112" height="238" fill="none" stroke="#e08214" stroke-width="2"/>
		<line x1="73" y1="211" x2="185" y2="211" stroke="#e08214" stroke-width="1"/>
	</g>
	<text x="111" y="203.7" fill="#000000" font-family="Verdana" font-size="12">BOOK</text>
	<text x="78" y="228.7" fill="#000000" font-family="Verdana" font-size="12">refBook</text>
	<line x1="78" y1="231" x2="125" y2="231" stroke="#000000" stroke-width="1"/>
	<text x="78" y="245.7" fill="#000000" font-family="Verdana" font-size="12">isbn_paperback</text>
	<text x="78" y="262.7" fill="#000000" font-family="Verdana" font-size="12">original_title</text>
	<text x="78" y="279.7" fill="#000000" font-family="Verdana" font-size="12">title</text>
	<text x="78" y="296.7" fill="#000000" font-family="Verdana" font-size="12">summary</text>
	<text x="78" y="313.8" fill="#000000" font-family="Verdana" font-size="12">publication_year</text>
	<text x="78" y="330.8" fill="#000000" font-family="Verdana" font-size="12">language</text>
	<text x="78" y="347.8" fill="#000000" font-family="Verdana" font-size="12">page_count</text>
	<text x="78" y="364.8" fill="#000000" font-family="Verdana" font-size="12">cover</text>
	<text x="78" y="381.8" fill="#000000" font-family="Verdana" font-size="12">paperback_price</text>
	<text x="78" y="398.8" fill="#000000" font-family="Verdana" font-size="12">isbn_ebook</text>
	<text x="78" y="415.8" fill="#000000" font-family="Verdana" font-size="12">ebook_price</text>
</g>

<!-- Entity AUTHOR -->
<g id="entity-AUTHOR">
	<g id="frame-AUTHOR">
		<rect x="205" y="9" width="74" height="25" fill="#fdb863" stroke="#fdb863" stroke-width="0"/>
		<rect x="205" y="34.0" width="74" height="127" fill="#fee0b6" stroke="#fee0b6" stroke-width="0"/>
		<rect x="205" y="9" width="74" height="152" fill="none" stroke="#e08214" stroke-width="2"/>
		<line x1="205" y1="34" x2="279" y2="34" stroke="#e08214" stroke-width="1"/>
	</g>
	<text x="216" y="26.7" fill="#000000" font-family="Verdana" font-size="12">AUTHOR</text>
	<text x="210" y="51.7" fill="#000000" font-family="Verdana" font-size="12">refAuthor</text>
	<line x1="210" y1="54" x2="268" y2="54" stroke="#000000" stroke-width="1"/>
	<text x="210" y="68.7" fill="#000000" font-family="Verdana" font-size="12">firstname</text>
	<text x="210" y="85.8" fill="#000000" font-family="Verdana" font-size="12">lastname</text>
	<text x="210" y="102.8" fill="#000000" font-family="Verdana" font-size="12">nationality</text>
	<text x="210" y="119.8" fill="#000000" font-family="Verdana" font-size="12">bithdate</text>
	<text x="210" y="136.8" fill="#000000" font-family="Verdana" font-size="12">deathdate</text>
	<text x="210" y="153.8" fill="#000000" font-family="Verdana" font-size="12">website</text>
</g>
</svg>